<svg width="800" height="134" viewBox="0 0 800 134" fill="none" xmlns="http://www.w3.org/2000/svg">
<path opacity="0.4" d="M51.685 133.853C44.1481 133.853 37.229 132.927 30.9276 131.073C24.6263 129.096 18.9427 126.193 13.877 122.363C8.81119 118.532 4.30141 113.899 0.347629 108.463L16.101 90.6707C22.1552 99.0724 28.0859 104.88 33.893 108.092C39.7001 111.304 46.2485 112.911 53.5383 112.911C57.7392 112.911 61.5694 112.293 65.029 111.057C68.4885 109.698 71.2067 107.907 73.1836 105.683C75.1605 103.335 76.149 100.679 76.149 97.7133C76.149 95.6129 75.7165 93.6978 74.8516 91.968C74.1103 90.1147 72.9365 88.5084 71.3303 87.1493C69.7241 85.6667 67.7472 84.3076 65.3996 83.072C63.0521 81.8364 60.3956 80.7862 57.4303 79.9213C54.465 79.0564 51.1907 78.2533 47.6076 77.512C40.8121 76.1529 34.8814 74.3613 29.8156 72.1373C24.7499 69.7898 20.4872 66.948 17.0276 63.612C13.5681 60.1524 11.0352 56.3222 9.42896 52.1213C7.82274 47.7969 7.01963 42.9164 7.01963 37.48C7.01963 32.0435 8.19341 27.0395 10.541 22.468C13.0121 17.8964 16.3481 13.9427 20.549 10.6067C24.7499 7.27065 29.6303 4.67599 35.1903 2.82265C40.7503 0.969323 46.7427 0.0426571 53.1676 0.0426571C60.4574 0.0426571 66.9441 0.907546 72.6276 2.63732C78.4347 4.3671 83.5005 6.96177 87.825 10.4213C92.273 13.7573 95.9179 17.8347 98.7596 22.6533L82.821 38.4067C80.3499 34.5764 77.5699 31.4258 74.481 28.9547C71.3921 26.36 68.0561 24.4449 64.473 23.2093C60.8899 21.8502 57.1214 21.1707 53.1676 21.1707C48.7196 21.1707 44.8276 21.7884 41.4916 23.024C38.2792 24.2595 35.7463 26.0511 33.893 28.3987C32.0396 30.6227 31.113 33.3409 31.113 36.5533C31.113 39.0244 31.669 41.2484 32.781 43.2253C33.893 45.0787 35.4374 46.7467 37.4143 48.2293C39.5147 49.712 42.1712 51.0093 45.3836 52.1213C48.5961 53.2333 52.241 54.2218 56.3183 55.0867C63.1139 56.4458 69.2299 58.2991 74.6663 60.6467C80.1027 62.8707 84.7361 65.5889 88.5663 68.8013C92.3965 71.8902 95.3001 75.4733 97.277 79.5507C99.2539 83.5044 100.242 87.9524 100.242 92.8947C100.242 101.42 98.2036 108.772 94.1263 114.949C90.1725 121.004 84.5507 125.699 77.261 129.035C69.9712 132.247 61.4459 133.853 51.685 133.853ZM182.336 132V2.26665H236.268C243.682 2.26665 250.354 4.05821 256.284 7.64133C262.339 11.2244 267.157 16.1049 270.74 22.2827C274.323 28.4604 276.115 35.3795 276.115 43.04C276.115 50.824 274.323 57.8667 270.74 64.168C267.157 70.3458 262.339 75.288 256.284 78.9947C250.354 82.7013 243.682 84.5547 236.268 84.5547H206.43V132H182.336ZM206.43 62.3147H234.6C237.689 62.3147 240.469 61.4498 242.94 59.72C245.535 57.9902 247.574 55.7044 249.056 52.8627C250.663 50.0209 251.466 46.8084 251.466 43.2253C251.466 39.6422 250.663 36.4915 249.056 33.7733C247.574 30.9315 245.535 28.7075 242.94 27.1013C240.469 25.3715 237.689 24.5067 234.6 24.5067H206.43V62.3147ZM357.208 132V2.26665H413.55C421.334 2.26665 428.438 4.11999 434.863 7.82666C441.288 11.4098 446.354 16.352 450.06 22.6533C453.891 28.8311 455.806 35.812 455.806 43.596C455.806 51.0093 453.891 57.8667 450.06 64.168C446.354 70.3458 441.288 75.288 434.863 78.9947C428.562 82.5778 421.457 84.3693 413.55 84.3693H380.746V132H357.208ZM432.454 132L399.464 73.4347L424.299 68.8013L460.995 132.185L432.454 132ZM380.746 63.4267H413.735C417.318 63.4267 420.407 62.6236 423.002 61.0173C425.72 59.2875 427.82 56.94 429.303 53.9747C430.786 51.0093 431.527 47.7351 431.527 44.152C431.527 40.0747 430.6 36.5533 428.747 33.588C426.894 30.6227 424.299 28.2751 420.963 26.5453C417.627 24.8155 413.797 23.9507 409.472 23.9507H380.746V63.4267ZM542.035 132V2.26665H626.918V24.136H565.758V110.131H627.659V132H542.035ZM553.155 76.4V54.9013H617.466V76.4H553.155ZM713.468 132V2.26665H798.351V24.136H737.191V110.131H799.092V132H713.468ZM724.588 76.4V54.9013H788.899V76.4H724.588Z" fill="white"/>
</svg>
